<?xml version="1.0"?><svg width="570" height="512" xmlns="http://www.w3.org/2000/svg" xmlns:xlink="http://www.w3.org/1999/xlink">
 <title>Black and White World</title>
 <defs>
  <linearGradient id="linearGradient20137">
   <stop id="stop20139" offset="0" stop-color="#00bf00"/>
   <stop id="stop20141" offset="1" stop-color="#007500"/>
  </linearGradient>
  <radialGradient cx="202.06305" cy="297.1124" fx="205.17723" fy="298.37747" gradientTransform="scale(0.893959, 1.11862)" gradientUnits="userSpaceOnUse" id="radialGradient1902" r="188.61865" xlink:href="#linearGradient20137"/>
 </defs>
 <desc>wmf2svg</desc>
 <g>
  <title>Layer 1</title>
  <circle fill="#ffffff" stroke="#000000" stroke-width="0.6875" stroke-dasharray="null" stroke-linejoin="round" stroke-linecap="round" cx="283" cy="261" r="133.416626" id="svg_1"/>
  <g transform="matrix(1.41985, 0, 0, 1.41985, 15.322, -182.215)" fill-rule="evenodd" fill="url(#radialGradient1902)" id="Continents">
   <polyline points="191.606,364.837 191.267,365.807 191.144,370.077 190.259,372.042 187.038,373.198 185.647,375.915 185.712,379.882 188.232,381.797 192.032,384.09 196.194,388.171 198.91,391.352 201.068,391.477 201.275,393.818 200.224,396.174 200.617,397.792 200.845,397.972 210.18,396.129 219.178,393.427 227.846,389.795 238.068,384.159 247.126,377.53 247.285,374.844 248.828,370.851 251.658,366.858 253.247,364.493 250.9,362.726 249.644,362.552 246.623,363.872 240.708,365.215 235.872,365.86 231.891,361.244 225.602,361.364 220.95,360.56 215.542,358.295 211.252,359.28 205.355,359.378 203.034,360.486 198.711,358.972 195.851,360.277 193.386,362.286 192.004,363.713 189.792,363.249 186.379,362.95 183.487,360.842 182.946,359.4 183.797,356.88 183.961,354.733 181.973,353.302 178.929,352.472 175.524,352.523 175.131,350.905 176.193,348.898 176.697,345.476 174.688,344.262 172.023,345.193 170.965,347.012 169.014,347.587 166.479,346.731 163.032,343.934 162.655,340.343 163.129,337.093 165.972,333.261 169.722,332.473 172.064,332.789 173.671,333.676 175.283,333.462 177.081,332.523 180.118,332.817 182.995,334.038 185.018,337.053 186.646,339.364 188.436,338.803 187.874,335.935 186.755,333.598 187.265,330.713 188.665,328.346 192.196,325.782 194.327,323.946 194.482,320.535 195.879,316.716 197.631,314.149 198.881,313.784 199.591,311.977 201.33,309.248 202.936,308.496 204.56,309.356 205.798,307.916 208.474,306.421 210.419,305.307 209.68,303.513 206.993,303.933 205.74,303.572 205.553,301.625 203.751,301.111 201.976,302.56 200.018,303.512 199.815,302.623 201.761,300.595 204.959,298.929 206.947,298.72 209.633,297.573 210.49,295.59 209.562,293.067 206.845,289.887 201.952,286.189 199.074,285.881 197.456,285.558 195.824,283.436 190.976,281.366 189.185,281.927 189.208,284.992 189.434,288.945 190.715,290.354 189.661,291.984 189.184,295.423 188.67,298.496 186.672,296.717 185.232,294.408 185.014,291.718 182.671,290.676 179.063,289.837 177.775,287.891 178.09,283.741 180.215,280.453 183.584,277.176 186.606,274.943 187.995,273.14 186.373,271.366 184.23,272.128 181.897,271.435 181.501,269.091 181.289,266.938 179.681,266.965 179.194,270.055 177.755,271.331 176.524,270.45 176.455,266.67 175.537,264.192 173.542,263.138 171.917,260.638 169.233,260.871 167.629,262.349 169.617,264.084 170.016,266.24 172.362,268.007 172.034,270.357 164.781,264.729 160.996,261.378 158.987,258.524 158.971,255.997 158.198,252.618 156.56,251.902 153.531,251.958 152.273,252.699 150.655,252.377 148.873,252.561 148.19,254.386 147.475,255.655 144.051,255.008 141.928,256.468 140.712,259.026 140.013,261.182 138.046,260.871 136.044,259.281 136.788,261.612 139.866,262.997 143.278,264.209 146.164,265.78 147.275,268.799 147.495,272.215 146.312,277.273 144.75,282.513 144.436,286.664 144.484,289.019 145.053,291.509 142.925,294.071 140.987,297.362 139.078,301.7 138.24,306.934 137.613,314.322 138.366,317.003 139.864,322.017 140.974,325.949 142.65,330.615 144.814,332.918 146.629,333.593 144.809,331.467 143.868,328.783 143.31,325.728 142.744,323.049 144.155,322.671 144.902,324.814 146.209,330.013 148.972,335.548 149.735,338.579 149.021,340.574 150.69,343.064 153.925,344.623 158.82,349.048 161.858,350.254 166.556,351.774 171.937,354.023 174.659,355.796 177.188,358.059 179.216,362.526 183.174,364.079 185.709,364.935 188.568,364.544 191.606,364.837" stroke-linejoin="round" stroke-linecap="round" stroke-width="0.444585" stroke="#000000" fill="#000000" id="svg_3"/>
   <polyline points="181.506,344.509 183.652,343.56 187.072,344.395 191.02,345.599 194.058,345.892 196.775,347.127 196.072,348.558 192.848,348.988 190.158,347.043 186.896,345.468 181.506,344.509" stroke-linejoin="round" stroke-linecap="round" stroke-width="0.444585" stroke="#000000" fill="#000000" id="svg_4"/>
   <polyline points="197.674,347.994 197.535,349.432 199.866,350.313 202.02,350.626 205.767,350.027 203.242,348.605 203.414,347.721 201.96,347.197 197.674,347.994" stroke-linejoin="round" stroke-linecap="round" stroke-width="0.444585" stroke="#000000" fill="#000000" id="svg_5"/>
   <polyline points="211.029,295.394 212.297,296.642 214.657,298.57 217.173,300.672 217.915,302.279 213.957,302.367 211.439,299.538 210.517,297.552 211.029,295.394" stroke-linejoin="round" stroke-linecap="round" stroke-width="0.444585" stroke="#000000" fill="#000000" id="svg_6"/>
   <polyline points="194.186,280.775 191.852,280.082 188.978,279.586 191.822,277.394 191.96,274.317 190.673,272.37 187.257,271.346 184.913,270.304 182.559,267.273 184.501,265.433 187.211,266.132 190.629,267.882 193.877,269.602 195.163,272.462 196.251,273.331 198.939,274.55 200.601,277.416 199.171,279.04 198.682,281.405 196.547,281.79 194.186,280.775" stroke-linejoin="round" stroke-linecap="round" stroke-width="0.444585" stroke="#000000" fill="#000000" id="svg_7"/>
   <polyline points="207.24,278.01 210.48,280.106 211.931,280.82 215.149,279.852 219.053,278.512 215.279,277.15 214.009,275.176 214.326,271.751 214.609,265.827 216.742,263.803 216.707,260.578 213.271,257.215 209.649,254.576 205.311,253.206 201.726,250.934 197.585,250.83 194.38,251.958 192.783,253.973 190.983,254.186 190.819,252.749 188.298,252.779 185.278,254.098 185.824,256.079 184.436,259.521 185.907,261.659 188.762,263.401 189.992,259.058 191.394,257.416 192.346,260.449 194.854,262.928 197.198,263.971 200.833,266.77 203.915,269.607 204.681,275.003 206.851,276.203 207.24,278.01" stroke-linejoin="round" stroke-linecap="round" stroke-width="0.444585" stroke="#000000" fill="#000000" id="svg_8"/>
   <polyline points="219.417,263.22 219.832,266.262 220.905,267.884 222.876,268.733 225.371,265.827 226.387,262.191 224.225,260.614 221.895,261.373 220.845,262.815 219.417,263.22" stroke-linejoin="round" stroke-linecap="round" stroke-width="0.444585" stroke="#000000" fill="#000000" id="svg_9"/>
   <polyline points="257.423,248.332 258.705,251.381 258.556,254.415 259.297,256.935 261.834,258.517 261.657,260.504 259.532,261.237 258.098,261.106 256.157,262.031 260.112,263.772 259.594,265.393 256.001,265.442 256.387,267.436 257.305,269.915 257.358,272.807 258.996,275.468 260.273,277.979 262.27,279.759 261.384,280.998 261.044,282.273 260.36,285.011 258.233,286.659 254.806,284.56 254.607,282.568 252.592,280.816 252.576,278.29 254.331,276.448 254.141,273.775 250.881,272.925 249.273,272.952 248.187,271.169 248.501,267.018 246.125,262.563 243.775,260.983 243.008,258.141 242.407,254.183 239.508,249.897 238.749,246.678 236.401,245.825 233.904,244.42 232.441,243.546 231.555,244.481 232.837,245.89 230.71,247.538 232.672,248.038 234.861,249.631 237.214,251.937 240.1,253.507 237.24,254.812 236.37,256.633 233.844,256.126 230.798,254.57 228.401,250.635 226.583,249.236 222.458,247.159 219.384,245.586 217.218,242.557 219.689,241.087 224.163,240.291 223.616,238.311 221.815,237.798 221.29,238.882 218.217,238.949 218.743,236.95 216.771,236.103 215.497,234.317 211.885,232.027 206.455,228.336 205.372,228.919 204.352,230.19 202.023,230.949 200.556,230.263 197.869,229.77 194.3,230.024 192.517,231.122 188.77,231.722 185.36,231.235 183.012,230.382 182.65,228.592 179.044,228.48 177.632,229.773 173.876,230.023 170.474,230.8 170.502,232.762 168.718,233.861 164.957,234.3 163.549,235.404 164.099,237.196 162.49,238.137 158.019,238.743 157.688,240.367 157.538,242.371 156.106,243.27 153.63,245.843 151.848,247.668 149.557,249.519 146.695,250.098 147.407,249.017 148.804,246.837 148.42,245.569 146.116,245.619 144.842,243.834 143.728,242.034 145.496,240.048 147.435,238.397 149.047,238.181 150.482,235.454 150.067,232.413 152.213,231.463 155.22,229.983 155.376,226.572 153.736,225.13 152.121,224.62 160.468,221.626 167.484,219.671 174.294,218.351 182.822,217.376 190.406,217.186 199.289,217.769 210.317,219.65 221.098,222.902 228.444,226.071 236.028,230.075 242.436,234.261 248.451,238.774 253.729,243.742 257.274,247.476 257.423,248.332" stroke-linejoin="round" stroke-linecap="round" stroke-width="0.444585" stroke="#000000" fill="#000000" id="svg_10"/>
   <polyline points="236.587,259.323 234.981,260.076 235.696,261.665 237.365,264.155 237.915,265.946 238.668,268.627 241.212,270.747 242.977,270.895 242.263,269.305 240.064,267.362 239.881,266.257 242.051,267.153 244.408,268.355 246.555,269.046 246.541,267.245 246.616,267.063 246.692,266.881 246.74,266.682 246.743,266.495 246.751,266.117 246.714,265.751 246.632,265.396 246.571,265.129 246.513,264.978 246.494,264.889 245.057,264.032 240.553,262.139 238.571,261.247 236.587,259.323" stroke-linejoin="round" stroke-linecap="round" stroke-width="0.444585" stroke="#000000" fill="#000000" id="svg_11"/>
   <polyline points="263.598,255.384 263.44,257.765 264.194,260.445 263.475,261.903 262.241,261.936 263.328,263.718 265.515,266.531 265.728,270.324 263.766,269.824 262.502,270.028 262.201,274.339 262.43,278.105 261.909,279.914 262.115,283.169 261.056,284.988 260.397,287.322 261.488,290.556 263.331,294.832 263.193,297.91 263.091,304.214 263.884,309.931 265.371,314.595 267.749,319.777 270.837,323.15 274.445,323.989 276.543,320.683 277.967,318.522 279.918,317.641 280.392,311.836 280.449,306.458 280.216,300.936 279.526,294.444 278.064,286.822 276.248,280.314 274.202,274.539 271.648,268.791 269.03,263.69 265.85,258.58 263.598,255.384" stroke-linejoin="round" stroke-linecap="round" stroke-width="0.444585" stroke="#000000" fill="#000000" id="svg_12"/>
  </g>
 </g>
</svg>